<?xml version="1.0" encoding="UTF-8"?>
<svg id="Calque_2" data-name="Calque 2" xmlns="http://www.w3.org/2000/svg" viewBox="0 0 81.71 81.21">
  <defs>
    <style>
      .cls-1 {
        fill: #aec6ce;
      }
    </style>
  </defs>
  <g id="Pictos">
    <g>
      <path class="cls-1" d="M30.24,32.25s4.04-2.69,8.73-2.17c4.44,.5,2.97,3.53,2.79,3.71-.19,.19-.43,.49-1.92-.25-1.49-.74-6.62-1.73-9.59-1.3Z"/>
      <polygon class="cls-1" points="20.23 8.62 18.82 9.49 25.55 12.63 20.23 8.62"/>
      <polygon class="cls-1" points="30.32 3.51 29.08 4.5 30.57 7.47 30.32 3.51"/>
      <polygon class="cls-1" points="16.95 17.38 15.96 18.62 23.89 17.62 16.95 17.38"/>
      <path class="cls-1" d="M43.32,8.96c-2.89-1.65-7.59,.33-10.4,2.56-2.8,2.23-4.29,4.46-2.04,4.96,2.51,.56,6.67,1.65,6.67,1.65,0,0-1.24,1.98-.08,2.06,1.15,.08,1.4,.41,.74,.82l.45,4.25c.94-.66,2.08-1.39,3.47-2.17,2.23-1.25,5.22-2.23,7.93-2.73-.08-.63-1.13-7.78-6.73-11.41Zm-5.03,8.09c.58-1.16,1.55-1.95,1.07-.4-.49,1.55-1.73,1.72-1.07,.4Zm5.26,2.36c-1.59,.56-6.86,.62-4.78,0,1.51-.45,6.38-.57,4.78,0Z"/>
      <path class="cls-1" d="M46.12,35.07c-.52,.28-1.07,.56-1.68,.83-.08,.03-.15,.07-.23,.1-.15,.39-.3,.93,.02,.93,.47,0,1.76-.08,1.89-1.86Zm-9.07,7.31c-2.52,.37-2.27,3.01,.37,3.01s4.24-.52,5.43,1.39c.67-.61,1.35-1.31,2.01-2.1-.29-.48-1.13-1.65-2.53-1.94-1.77-.37-3.55,.79-5.36,.5,0,0,1.4-.21,1.9-.45,.5-.25,.7-.78-1.82-.41Zm11.17-8.57c-.4,.27-.85,.56-1.35,.84-.02,.32,.05,.64,.41,.55,.59-.15,1.09-.42,.94-1.39Zm-14.64,10.14c.25,.74,.33,1.49-.52,1.89-.49,.24-.96,.48-1.27,.64-.04,.87,.04,1.75,.35,2.54,.5,1.34,2.62,1.86,5.33,1.01-.2-.33-.53-.91-.75-1.3-.33-.58-.33-.74,.5-1.16,.8-.4,1.29-.95,3.26,1.03,.58-.37,1.17-.79,1.76-1.28-.09-.5-.54-1.69-3.04-1.4-3.14,.37-5.08-.29-4.87-2.06,.21-1.77,3.38-2.73,5.57-1.65,0,0,3.67-1.83,5.66,1.6,2.27-2.99,4.34-7.12,5.73-12.66,0,0-.74,.98-2.54,2.28,.26,1.81-.36,2.12-1.12,2.48-.81,.38-1.17,.16-1.17,.16-.32,1.2-1.08,1.52-2.58,1.8-1.1,.2-.85-.88-.64-1.47-1.58,.61-2.91,.88-4.04,.84-.58,1.63-2.82,7.13-5.46,3.07,0,0-.79,1.36-1.38,3.18,.52-.24,1.01-.11,1.2,.46Zm18.65-25.41s-.66-.36-1.83-.71c.23,.73,.46,1.51,.66,2.36,5.58-.8,9.3,.68,1.13,6.41,1.58,1.78,4.03,4.95,6.47,9.76,2.82-1.75,6.32-4.5,8.71-8.44,0,0-5.03-5.16-5.87-15.39,0,0-2.56,.21-4.12,.64,0,0,1.02,1.51,1.51,2.54l-.47,1.41s-.64-2.55-3.96-3.83l.53-.38s2.51-.46,4.27-1.1c0,0-2.59-.74-3.79-1.87,0,0-2.91,.98-4.81,2.61,0,0-.55,2.64,.08,4.76l3.71-.89-.21-.5-2.92,.7-.2,.05-.04-.21c-.08-.47-.12-.98-.12-1.53,0-.89,.11-1.65,.17-2.03v-.07s.07-.05,.07-.05c.91-.73,2.02-1.31,2.79-1.67,.41-.19,.85-.38,1.26-.54l.1-.04,.09,.07c.43,.32,.97,.64,1.6,.94l.51,.24-.55,.13c-.45,.11-1.18,.28-2.12,.47l-.11,.02-1.43,1.02,.92,.36c1.27,.49,2.28,1.23,2.98,2.21,.27,.38,.44,.71,.53,.92,.05,.12,.08,.21,.1,.27l.02,.07h0s.44,1.76,.44,1.76l1.12-3.32-.09-.19c-.27-.57-.68-1.25-.97-1.72l-.15-.25,.29-.05c.81-.15,1.69-.26,2.29-.32l.2-.02,.02,.2c.86,8.34,4.48,13.26,5.57,14.56l.09,.11-.08,.12c-1.76,2.74-4.38,5.3-7.58,7.38l-.18,.12-.1-.19c-2.15-4.09-4.26-6.91-5.66-8.55l-.14-.16,.17-.13c1.35-.99,2.36-1.86,3.08-2.66,.85-.96,1.22-1.68,1.23-2.41,.01-.8-.61-1.4-1.25-1.65-.65-.27-1.48-.4-2.61-.4-.33,0-.67,.01-1.03,.04l-.43,.03,.26-.34,.24-.32c.5-.66,1.06-1.18,1.45-1.49,.25-.2,.45-.35,.58-.43l-.21-.5c-.28,.18-1.37,.94-2.24,2.11Zm2.23-2.13v.03c.05-.03,.08-.04,.08-.04l-.08,.02Zm-37.51,.97l-.99,1.24,7.92-.99-6.93-.25Zm3.28-8.75l-1.41,.87,6.74,3.14-5.32-4.01Zm10.45,19.52s-.04-.01-.06-.02v.03s.06,0,.06,0Zm-4.49-3.77s.12,.3,.37,.72c.18-.55,.52-1.55,.79-2.22,0,0,.41-.11,1.05-.38-.4-.17-.8-.36-1.14-.58,0,0-1.86,1.88-2.4,2.48l.81,3.2s.06-1.64,.52-3.21ZM30.32,3.51l-1.24,.99,1.49,2.97-.25-3.96Zm17.45,56.67l-1.01,6.28,2.24,.03-.42-6.4-.81,.09Zm-10.39-11.69c.21,.37,.65,.94,.89,1.25,.41-.16,.83-.36,1.26-.59-.16-.24-.41-.64-.67-.99-.41-.58-1.79-.2-1.49,.33Zm43.6,5.31c-.91-1.99-2.66-3.26-4.68-3.4-.14-.01-.28-.02-.43-.02-1.12,0-2.22,.33-3.18,.96l-.05,.04h-.06s-6.93-.31-6.93-.31l-.55-.03v.34s-.39,.04-.39,.04c-1.17-4.83-2.73-9.35-4.64-13.45l-.07-.15,.13-.1c5.63-4.2,7.95-8.18,8.53-9.3l.03-.05,.05-.03,.34-.18,.13-.07,1.44-2.42-2.5-.02h-.09l-.06-.07c-4.71-5.77-5.08-11.65-5.08-13.31,0-.25,0-.4,.01-.5l.05-.55-.56-.02c-1.89-.07-3.55-.57-4.94-1.49-.54-.36-.91-.71-1.13-.93-.12-.12-.21-.23-.26-.29l-.07-.09-.31-.44-.44,.32-.2,.15-.09,.07-.1-.04c-.66-.29-2.3-1.02-3.21-1.61-.27-.17-.49-.28-.66-.37-.34-.18-.57-.3-.79-.6-.44-.57-.91-1.94-1.43-4.18l-.06-.24-2.78-1.43,.11,.94c.06,.11,.4,3.25,.44,4.35,.04,1.05,.77,1.7,1.2,1.99,.41,.28,.84,.48,1.15,.62,.15,.07,.27,.12,.35,.17,.38,.2,1.54,.68,3.47,1.41l.42,.16-.41,.2c-.5,.25-1.01,.46-1.47,.63-.4,.15-.78,.26-1.14,.36l-.4,.09-.02,.41c-.03,.59-.11,1.21-.25,1.84l-.11,.5-.25-.45c-1.36-2.38-2.91-3.8-4.1-4.77-1.08-.87-2.66-1.36-4.47-1.36-2.82,0-5.86,1.16-8.57,3.25-2.75,2.15-3.94,3.7-3.99,5.18,0,.57,.25,1.12,.7,1.49,.4,.34,.93,.57,1.62,.71,.7,.14,1.55,.33,2.52,.59l.29,.1-.21,.24c-.8,.92-1.74,1.72-2.8,2.39l-.09,.06-.09-.04c-.68-.29-1.25-.62-1.68-.96-.18-.15-.3-.27-.36-.34-.04-.04-.06-.07-.07-.09l-.43-.69-.46,.68c-1.09,1.63-1.97,2.62-2.52,3.16-.3,.3-.53,.49-.67,.6-.08,.06-.13,.1-.2,.14l-.42,.25,.21,.44c.6,1.26,1.06,2.68,1.34,3.66,.18,.63,.31,1.15,.39,1.46l.02,.1-.07,.08c-1.19,1.39-2.93,3.01-4.19,4.12-1.42,1.25-2.71,2.3-2.72,2.3l-.12,.09-1.04,2.94,2.31-.87,.1-.04,.09,.07c2.45,1.97,5.97,3.48,8.48,4.41l-.08,.38-10.17-.62,.08,2.95,.04,1.54,.02,.57-.37-.44c-.37-.45-.78-.85-1.23-1.19-1.38-1.07-3.05-1.61-4.99-1.61-.6,0-1.23,.05-1.86,.16-.99,.16-2.08,.37-3.24,.62-1.12,.24-2.34,.54-3.63,.89l-2.38,.64,.06,.42s.01,.03,2.47,14.86l1.14,6.92c.04,.45,.53,5.4,.78,7.88,.13,1.31,.14,1.41,.14,1.41h0s.06,.56,.06,.56l2.84-.44c1.4-.22,3-.35,4.77-.4,2.67-.09,3.46-.16,3.88-.23,1.01-.17,1.94-.49,2.77-.96l.05-.03h.06s1.34,.14,1.34,.14l5.93,.57,.21,.02-.03,.21-.02,.1,2.67,.53,.68,.14,2.37,.46,1.32,.25c1.14,.22,2.22,.46,3.22,.7,.98,.23,1.94,.49,2.94,.78l3,.87,.43-2.89,.02-.16h.16s4.73-.29,4.73-.29l.06-.43,.03-.21,.19,.02c1.07,.1,3.13,.31,4.84,.47h.07s.05,.05,.05,.05c1.01,.94,2.29,1.45,3.7,1.48h.12c.51,0,1.02-.06,1.53-.18h.23s.02,.23,.02,.23l.05,.66,.64-.19c.06-.02,2.28-.69,2.61-.79,.37-.09,2.71-.29,3.2-.3,1.65,.15,2.13,.19,2.29,.22h-.02s.6,.04,.6,.04v-.21s-.01-.2-.01-.2h.2c.39-.01,.75-.04,1.11-.06l3.78-.18,.32-2.3s.39-3.75,.64-6.18l.02-.22,.22,.05,4.63,1.04,.52,.12,.58-2.68c.16-.74,.29-1.4,.41-2.1v-.08c.1-.52,.45-2.56,.54-3.21l.16-1.05v-.08c.18-1.12,.39-2.52,.39-3.93,0-1.52-.24-2.78-.73-3.85Zm-.19,7.79s-.16,1.06-.16,1.07c-.09,.71-.53,3.28-.54,3.3-.11,.63-.24,1.3-.4,2.04l-.47,2.16s-4.06-.91-5.43-1.22c-.36,3.45-.73,6.96-.73,6.96l-.26,1.88-3.35,.16c-.59,.04-1.16,.08-1.81,.06v.36s-1.83-.17-2.3-.22c-.5,0-2.84,.19-3.35,.32-.11,.03-2.63,.8-2.63,.8,0,0-.04-.52-.07-.96-.76,.29-1.55,.44-2.35,.43-1.38-.02-2.59-.55-3.52-1.5-2.33-.23-5.49-.53-5.79-.56-.05,.34-.11,.71-.11,.71l-4.89,.29-.43,2.88-2.41-.7c-1.05-.31-2.02-.57-2.96-.79-1.07-.26-2.16-.49-3.25-.71,0,0-2.78-.52-2.77-.52l-.92-.19-.68-.14-2.17-.43,.06-.36-6.71-.64-1.58-.16c-.81,.5-1.74,.84-2.78,1.01-.36,.05-1.12,.13-3.81,.22-1.81,.05-3.43,.19-4.84,.41l-2.29,.36s-.91-9.18-.92-9.32c-.02-.14-3.59-21.72-3.59-21.72l1.92-.52c1.25-.34,2.47-.64,3.61-.88,1.13-.25,2.21-.45,3.21-.62,2.57-.42,4.75,.04,6.44,1.35,1.11,.86,1.96,2.03,2.52,3.51l-.13-4.43-.07-2.37,8.98,.55s0,.33,0,.89c.62-.25,1.64-.74,2.84-1.6-1.93-.62-7.43-2.54-10.58-5.25l-1.64,.61,.61-1.72s4.89-3.92,7.22-6.78c0,0-.65-3.05-1.85-5.58,0,0,1.4-.83,3.56-4.06,0,0,.56,.9,2.7,1.74,1.01-.6,2.17-1.46,3.24-2.69l1.8-.16-.31,.9s1.35,2.75,1.75,3.64l-1.49-.29-1.66-2.27s-.97,.61-2.17,1.27c.24,.07,.5,.14,.77,.21,0,0,.72,1.33,1.2,2.6l-1.65-.28-.64-1.41s-.53-.1-1.23-.31c-.64,.31-1.25,.57-1.75,.71l-.88,2.05c.68,.91,1.85,2.05,3.68,2.46v-.54c-1.15-.29-2.16-.93-2.99-1.91l-.08-.09,.05-.11,.58-1.34,.04-.08,.08-.03c.36-.12,.76-.29,1.25-.52l.07-.03,.07,.02c.25,.07,.48,.12,.65,.17l.09,.02,.04,.09,.6,1.33,2.84,.49-.33-.87c-.4-1.05-.94-2.12-1.16-2.53l-.09-.17,.16-.1,.12-.07,.37-.22,.16-.09,.11,.15,1.39,1.9,2.36,.45,.15,.03v.15c.04,.51,.07,.97,.08,1.33v.1s-.07,.06-.07,.06c-1.97,1.57-2.8,2.76-3.15,3.47l-.04,.09-.09,.02c-2.08,.45-4.03,1.23-5.77,2.32l-.13,.08-1.31,2.73,1.12-.3s.52-.14,1.38-.28c.78-.13,2.01-.28,3.43-.28,.56,0,1.08,.02,1.59,.07l.25,.02-.08,.24c-.03,.08-.04,.17-.04,.25,0,.3,.12,.52,.25,.73,.68,1.19,1.61,2.06,2.71,2.51l.18,.07-.07,.18c-.31,.82-.64,1.47-.95,1.86-.33,.42-.54,.51-.67,.51-.15,0-.39-.18-.56-.43-.1-.13-.18-.28-.24-.41l-.09-.21s-.02-.09-.03-.14c-.02-.07-.03-.15-.07-.26-.02-.07-.05-.15-.13-.27-.05-.09-.26-.25-.46-.25-.44,.06-.53,.19-.67,.37-.05,.06-.1,.13-.14,.17-.62,.83-1.3,1.6-2.03,2.28l-.07,.07-.1-.02c-2.88-.53-5.59-1.48-8.04-2.82-.99-.55-1.73-1.04-2.17-1.36l-.06-.04-.2-.15,.17-.16c2.11-2,5.03-5.14,5.61-5.78l.12-.13,.02-.18c.08-.77,.17-1.44,.25-1.99l.06-.4,.28,.29c.31,.32,.57,.57,.7,.7l.19,.18,2.52-.41v-.54s-2.35,.39-2.35,.39c0,0-1.1-1.04-1.66-1.85,0,0-.3,1.42-.51,3.59,0,0-3.95,4.29-6.2,6.33,0,0,4.12,3.65,11.54,4.93,.78-.71,1.59-1.57,2.37-2.61,.45-.62,.45-.22,.56,.18,.1,.4,1.75,4.03,3.78-1.99-1.36-.32-2.37-1.19-3.14-2.53-.42-.65,.02-.86,.97-1.13,.07-.02,.14-.03,.2-.05-4.26-.94-8.53,.22-8.53,.22l.74-1.55c2.04-1.27,4.13-1.96,5.97-2.33,.12-.37,.72-1.75,3.42-3.84-.03-.9-.14-3.19-.4-4.81,0,0-2.02,.73-.79-2.22,0,0-3.75-1.16-6.3-1.66-2.56-.5-3.03-2.64,1.9-6.44,5.03-3.88,10.15-3.72,12.38-1.9,1.65,1.34,3.36,3.05,4.8,6.24,.37-1.04,.72-2.36,.79-3.76,0,0,1.85-.4,4.15-1.81-.51-.19-4.24-1.6-4.88-1.94-.69-.37-2.36-.87-2.42-2.34-.06-1.46-.42-4.33-.42-4.33l1.66,.85c1.22,5.2,1.79,4.64,3.1,5.49,1.14,.73,3.15,1.6,3.67,1.82,.18-.12,.36-.25,.55-.39,0,0,2.01,2.86,6.82,3.03,0,0-.58,7.33,5.4,14.45l1.91,.02-.89,1.5-.54,.29s-2.16,4.76-8.95,9.67c2.03,4.25,4,9.65,5.42,16.35,.3,.27,.58,.58,.83,.91,.03-1.8,.05-3.32,.05-3.32,0,0,6.96,.31,7.17,.32,1.04-.73,2.23-1.08,3.48-.99,1.82,.13,3.4,1.28,4.24,3.09,1.09,2.37,.63,5.37,.3,7.56Zm-22.29,6.17l-.05,4.33,3.01-.42c.07-.83,.12-1.57,.15-2.21,.04-.64,.06-1.29,.07-1.95v-.74c-.52,.07-1.06,.19-1.59,.39-.54,.19-1.06,.26-1.6,.6Zm-48.34-3.56l.95,6.51c.61-.14,1.25-.32,1.91-.51,.66-.19,1.34-.42,1.39-.56l-.81-5.83-3.44,.39ZM43.37,29.26c-.18,.18-.21,.38-.21,.38-.1,.63,.38,.72,.51,.66,.13-.07,.37-.26,.28-.7-.09-.43-.41-.52-.59-.33Zm-10.58,14.98c-.07-.22-.33-.18-.59-.09-.1,.37-.19,.75-.26,1.14,.85-.4,.98-.64,.85-1.05Zm43.4,7.79c-1.12-.08-2.14,.27-3.04,1.01-.21,0-6.46-.29-6.46-.29,0,0-.11,7.9-.11,7.99,0,.02-.1,.93-.24,2.29,0-.2,0-.4,.01-.58,.05-2.83-.41-4.95-1.39-6.49-1.06-1.66-2.67-2.52-4.77-2.55-1.95-.03-3.6,.72-4.9,2.23-.9,1.04-1.48,2.75-1.76,4.4l-.61-8.08,.92,4.25,.47-1.08c.05-.07,.1-.13,.15-.19,1.5-1.75,3.49-2.65,5.75-2.61,1.02,.02,1.95,.21,2.78,.57-1.27-5.95-2.9-10.75-4.59-14.59-1.04,.71-2.19,1.42-3.44,2.12l.66,2.6c-2.86-3.61-1.6-6.3-1.6-6.3l.46,1.83c.62-.26,1.82-.8,3.28-1.64-4.23-8.97-8.61-12.08-8.61-12.08,0,0-2.53-.55-6.43,2.05-1.47,.98-2.36,2.33-2.53,2.61,.17,.02,.26,.04,.26,.04,3.28,.31,4.08,8.04-.93,5.14-.81-.47-1.67-.82-2.54-1.06l-1.11,.7s2.62,7.01,16.3-4.39c0,0-.63,7.72-7.38,16.39-6.47,8.31-18.5,7.59-12.25-4.74,0,0-1.81,2.35-5.46,4.18,0,1.27-.01,2.97-.02,4.82h.03v.32l3.9,.68-5.03,.12c.02-3.89,.03-7.19,.03-7.19l-6.75-.42,.04,1.18,.15,5.32,.08,8.16s0,1.76,.02,3.62c-.23-.37-.48-.71-.76-1.03-.67-.77-1.44-1.33-2.28-1.68,.48-.65,.86-1.39,1.12-2.21,.25-.8,.39-1.67,.42-2.6,.03-.8-.03-1.65-.17-2.54-.38-2.37-1.3-4.13-2.73-5.23-1.46-1.12-3.34-1.5-5.6-1.14-.98,.16-2.04,.36-3.15,.6-1.12,.24-2.32,.54-3.55,.87l-.96,.26s3.43,20.71,3.44,20.78c0,.07,.81,8.2,.81,8.2l1.14-.18c1.45-.23,3.12-.37,4.97-.42,2.66-.09,3.37-.16,3.67-.21,1.53-.25,2.75-.9,3.64-1.94,0,.6,0,.98,0,.98l1,.1,5.64,.54s0-.44-.02-1.14l2.4,.45-.22,1.38,1.08,.21,.76,.15,.86,.18,2.79,.53c1.11,.22,2.21,.45,3.3,.71,.95,.23,1.94,.49,3.01,.8l1.21,.35,.33-2.2,.03-.2,.02-.11,4.89-.29s.46-3.2,.62-4.31c.19-.01,.21-.01,.41-.02,.04,1.1,.13,3.58,.13,3.58l6.22,.6c.76,.93,1.79,1.43,3.01,1.45,.96,.02,1.9-.23,2.8-.75,.17-.1,.34-.22,.51-.34,.01,.17,.09,1.28,.09,1.28l1.34-.42c.47-.15,3.23-.37,3.65-.36,.19,.02,1.19,.12,1.19,.12v-.35c1.13,.13,1.96,.08,2.83,.02l2.47-.12,.13-.94s.43-4.11,.85-8.19c.34,.08,5.56,1.25,5.56,1.25l.23-1.08c.16-.72,.29-1.39,.39-1.99,0-.02,.44-2.59,.53-3.26l.16-1.09c.33-2.17,.75-4.86-.21-6.93-.66-1.44-1.91-2.36-3.32-2.46ZM43.93,30.83c-.29,.13-1.34-.04-1.1-1.29,0,0,.07-.39,.46-.76,.39-.37,1.1-.21,1.28,.65,.18,.86-.35,1.26-.64,1.4Zm3.69,.05c-1.12,.74-2.11-.29-2.48-1.18-.38-.9-.17-1.95-.09-2.22,0,0,.2-.98,1.16-1.32,.96-.34,1.94,.43,2.38,1.46,.44,1.03,.15,2.52-.97,3.26Zm-28.28,41.33c-.73,1.42-1.94,2.27-3.63,2.54-.42,.07-1.6,.13-3.52,.19-1.93,.06-3.63,.2-5.11,.43l-.7-7.09-3.28-19.84c1.25-.34,2.42-.62,3.5-.86,1.08-.24,2.11-.43,3.09-.59,1.96-.32,3.55,0,4.76,.92,1.21,.93,1.98,2.44,2.32,4.54,.28,1.76,.21,3.3-.21,4.64-.42,1.34-1.17,2.39-2.25,3.17,1.42,.04,2.63,.64,3.62,1.77,1,1.15,1.65,2.67,1.95,4.58,.37,2.3,.19,4.17-.54,5.59Zm1.28,1.67c.01-2.31,.01-4.7,.01-7.2,0-2.49-.02-5.15-.04-7.96-.03-3.36-.05-6.08-.08-8.16-.03-2.09-.12-3.33-.15-5.32l4.52,.28-.08,18.54,.23,10.24-4.42-.42Zm28.18,.68l-.13-3.75-2.43,.16-.62,4.31-4.88,.29c-.07,.47-.13,.88-.18,1.19-.05,.34-.1,.66-.14,.96-.99-.29-2-.56-3.06-.82-1.05-.25-2.17-.49-3.34-.72-1.15-.22-2.09-.4-2.82-.53-.73-.12-.93-.22-1.64-.33l.22-1.38-4.3-.81,.89-9.8v-.15c.14-1.59,.24-2.8,.28-3.63,.02-.35,.04-.77,.07-1.28,.03-.51,.06-1.06,.08-1.66l.1-3.86,4.37-.1-.45,7.45-.52,11.12,8.16-10.57c-1-.17-2.53-.35-3.56-.47-1.03-.11-2.06-.18-3.1-.22l1.08-5.62c.4,.12,.84,.23,1.31,.35,.48,.11,1.2,.27,2.18,.46,1.42,.27,2.7,.51,3.84,.71,1.14,.21,2.15,.37,3.02,.5l-.94,6.02-6.41,8.54,5.53,.9c.06-.4,4.96-24.32,4.96-24.32l5.13,.38,2.04,27.14-4.74-.46Zm-17.24-6.76l.32-6.74c1.02,.04,1.97,.11,2.91,.21,.49,.06,1.08,.12,1.66,.2-.96,1.24-3.15,4.08-4.89,6.33Zm10.13-2.78l-1.13,5.56c-.94-.15-1.99-.32-2.71-.44,.87-1.16,2.56-3.42,3.84-5.12Zm19.67,11.34l-.15-2.25c-.6,.78-1.26,1.39-1.99,1.8-.73,.42-1.47,.62-2.23,.6-1.06-.02-1.88-.5-2.46-1.45-.59-.94-.87-2.25-.84-3.91,.02-1.3,.19-2.56,.51-3.77,.31-1.2,.68-2.01,1.1-2.41,.41-.38,1.21-.75,2.39-1.11,1.18-.36,1.75-.4,3.35-.51l.02-1.01c0-.4,0-.79,0-1.16,0-.37-.03-1.36-.06-1.67-.49-.34-2.56-.09-2.64-.08l-.08,2.41c-.42-.1-3.57,.74-3.88,.77v-.44c.04-1.95,.64-4.57,1.72-5.83,1.08-1.26,2.43-1.88,4.05-1.85,1.72,.03,3.01,.71,3.87,2.05,.86,1.33,1.27,3.29,1.22,5.87-.01,.93-.05,2.04-.11,3.34-.05,1.31-.08,2.15-.09,2.53-.02,.92,0,1.93,.05,3.02,.05,1.09,.15,2.63,.31,4.63-.18-.03-3.4,.19-4.05,.41Zm17.09-13.99c-.07,.55-.42,2.6-.52,3.21-.11,.61-.23,1.25-.38,1.95l-4.67-1.05,1.12-6.32-1.51,.08-1.6,15.43c-1.81,.03-2.69,.26-4.42,.04-.14-.01-.26-.02-.34-.04l1.53-14.87,.09-6.91,4.36,.2-.16,2.86c.41-1.28,.97-2.25,1.69-2.92,.72-.67,1.54-.97,2.46-.91,1.04,.07,1.91,.76,2.4,1.83,.98,2.13,.22,5.38-.04,7.43ZM46.53,27.15c-.59,.14-.78,.73-.78,.73-.07,.16-.26,.79-.1,1.37,.16,.58,.64,1.33,1.35,.95,.71-.38,1.06-1.42,.87-2.09-.19-.67-.75-1.1-1.34-.96ZM11.13,54.44l-3.41,.47,.79,5.22,3.32-.74-.69-4.95Z"/>
    </g>
  </g>
</svg>